<svg width="44" height="44" viewBox="0 0 44 44" fill="none" xmlns="http://www.w3.org/2000/svg">
<path d="M31.9756 12.3223C32.9033 11.3994 32.9033 9.8955 31.9756 8.97265L28.5625 5.55956L28.5674 5.56445C27.6641 4.66113 26.1113 3.10839 23.9141 0.916008C22.8789 -0.0947338 21.2041 -0.0849681 20.1787 0.940422L0.950196 20.1543C0.704181 20.3986 0.508934 20.6892 0.375698 21.0094C0.242461 21.3295 0.173868 21.6728 0.173868 22.0195C0.173868 22.3663 0.242461 22.7096 0.375698 23.0297C0.508934 23.3498 0.704181 23.6404 0.950196 23.8848L20.1738 43.0937C20.6695 43.5885 21.3412 43.8664 22.0415 43.8664C22.7418 43.8664 23.4135 43.5885 23.9092 43.0937L31.9707 35.0371C32.8984 34.1143 32.8984 32.6103 31.9707 31.6875C31.5251 31.2441 30.9221 30.9952 30.2935 30.9952C29.6648 30.9952 29.0618 31.2441 28.6162 31.6875L22.5127 37.8008C22.2588 38.0547 21.8633 38.0547 21.6094 37.8008L6.25293 22.459C5.99902 22.2051 5.99902 21.8096 6.25293 21.5557L21.6045 6.21386C21.624 6.19433 21.6484 6.17968 21.668 6.16015C21.9219 5.95995 22.2734 5.97949 22.5078 6.21386L28.6211 12.3223C29.5488 13.25 31.0527 13.25 31.9756 12.3223ZM16.9512 22.1172C16.9512 23.4925 17.498 24.8114 18.4714 25.7839C19.4448 26.7564 20.765 27.3027 22.1416 27.3027C23.5182 27.3027 24.8384 26.7564 25.8118 25.7839C26.7852 24.8114 27.332 23.4925 27.332 22.1172C27.332 20.7419 26.7852 19.4229 25.8118 18.4504C24.8384 17.478 23.5182 16.9316 22.1416 16.9316C20.765 16.9316 19.4448 17.478 18.4714 18.4504C17.498 19.4229 16.9512 20.7419 16.9512 22.1172ZM43.1328 20.2324L37.1318 14.2607C36.2041 13.3379 34.7002 13.3379 33.7773 14.2656C33.5568 14.4852 33.3818 14.7462 33.2623 15.0336C33.1429 15.321 33.0814 15.6292 33.0814 15.9404C33.0814 16.2517 33.1429 16.5598 33.2623 16.8472C33.3818 17.1346 33.5568 17.3956 33.7773 17.6152L37.8301 21.6631C38.084 21.917 38.084 22.3125 37.8301 22.5664L33.8359 26.5557C33.6154 26.7752 33.4404 27.0362 33.3209 27.3236C33.2015 27.6111 33.14 27.9192 33.14 28.2305C33.14 28.5417 33.2015 28.8499 33.3209 29.1373C33.4404 29.4247 33.6154 29.6857 33.8359 29.9053C34.2815 30.3486 34.8846 30.5976 35.5132 30.5976C36.1418 30.5976 36.7448 30.3486 37.1904 29.9053L43.1377 23.9629C43.3829 23.7179 43.5773 23.427 43.7097 23.1067C43.8422 22.7865 43.9102 22.4432 43.9097 22.0966C43.9093 21.7501 43.8404 21.407 43.7071 21.0871C43.5738 20.7672 43.3786 20.4767 43.1328 20.2324Z" fill="white"/>
</svg>
